<svg xmlns="http://www.w3.org/2000/svg" width="1280" height="720" viewBox="0 0 1280 720">
<defs>
<marker id="arrow" markerWidth="10" markerHeight="10" refX="9" refY="3" orient="auto" markerUnits="strokeWidth">
<path d="M0,0 L0,6 L9,3 z" fill="#374151"/>
</marker>
</defs>
<rect width="1280" height="720" fill="#f8fafc"/>
<text x="40" y="46" font-size="24" font-weight="800" fill="#111827">E172 AIME2026 Landing KG</text>
<text x="40" y="72" font-size="13" fill="#4b5563">created 2026-05-02T20:41:40 | formal full run not complete</text>
<rect x="40" y="112" width="250" height="118" rx="8" fill="#dbeafe" stroke="#273142" stroke-width="1.4"/><text x="54" y="138" font-size="15" font-weight="700" fill="#111827">Task Bank</text><text x="54" y="164" font-size="12" fill="#374151">MathArena aime_2026</text><text x="54" y="182" font-size="12" fill="#374151">30 problems</text><text x="54" y="200" font-size="12" fill="#374151">prompt = original problem only</text>
<rect x="360" y="112" width="250" height="118" rx="8" fill="#dcfce7" stroke="#273142" stroke-width="1.4"/><text x="374" y="138" font-size="15" font-weight="700" fill="#111827">Pipeline Audit</text><text x="374" y="164" font-size="12" fill="#374151">py_compile + prompt smoke</text><text x="374" y="182" font-size="12" fill="#374151">passed</text><text x="374" y="200" font-size="12" fill="#374151">no gold/source metadata prompt leak</text>
<rect x="700" y="104" width="270" height="138" rx="8" fill="#fef3c7" stroke="#273142" stroke-width="1.4"/><text x="714" y="130" font-size="15" font-weight="700" fill="#111827">Qwen Formal Baseline</text><text x="714" y="156" font-size="12" fill="#374151">state: partial_checkpoint_without_done</text><text x="714" y="174" font-size="12" fill="#374151">completed: 10/30</text><text x="714" y="192" font-size="12" fill="#374151">correct: 10/10</text><text x="714" y="210" font-size="12" fill="#374151">tokens: 36181</text>
<rect x="700" y="306" width="270" height="138" rx="8" fill="#fee2e2" stroke="#273142" stroke-width="1.4"/><text x="714" y="332" font-size="15" font-weight="700" fill="#111827">Qwen Hidden-Gate Smoke</text><text x="714" y="358" font-size="12" fill="#374151">1 smoke row</text><text x="714" y="376" font-size="12" fill="#374151">risk 1.810 &gt;= 1.412</text><text x="714" y="394" font-size="12" fill="#374151">triggered, hit max</text><text x="714" y="412" font-size="12" fill="#374151">wrong fallback answer</text>
<rect x="1030" y="112" width="210" height="118" rx="8" fill="#e5e7eb" stroke="#273142" stroke-width="1.4"/><text x="1044" y="138" font-size="15" font-weight="700" fill="#111827">Gemma Planned</text><text x="1044" y="164" font-size="12" fill="#374151">gemma4_31b_it</text><text x="1044" y="182" font-size="12" fill="#374151">not started</text><text x="1044" y="200" font-size="12" fill="#374151">no rows landed</text>
<rect x="1030" y="306" width="210" height="118" rx="8" fill="#e5e7eb" stroke="#273142" stroke-width="1.4"/><text x="1044" y="332" font-size="15" font-weight="700" fill="#111827">Gemma MoE Planned</text><text x="1044" y="358" font-size="12" fill="#374151">gemma4_26b_a4b_it</text><text x="1044" y="376" font-size="12" fill="#374151">not started</text><text x="1044" y="394" font-size="12" fill="#374151">no rows landed</text>
<rect x="360" y="520" width="260" height="118" rx="8" fill="#fce7f3" stroke="#273142" stroke-width="1.4"/><text x="374" y="546" font-size="15" font-weight="700" fill="#111827">Boundary</text><text x="374" y="572" font-size="12" fill="#374151">Do not report 30-problem score</text><text x="374" y="590" font-size="12" fill="#374151">Do not compare models yet</text><text x="374" y="608" font-size="12" fill="#374151">Do not claim gate improvement</text>
<rect x="700" y="520" width="270" height="118" rx="8" fill="#ede9fe" stroke="#273142" stroke-width="1.4"/><text x="714" y="546" font-size="15" font-weight="700" fill="#111827">Hidden-State Read</text><text x="714" y="572" font-size="12" fill="#374151">only smoke observation</text><text x="714" y="590" font-size="12" fill="#374151">35:residual_hidden_state</text><text x="714" y="608" font-size="12" fill="#374151">valid-looking span triggered</text><text x="714" y="626" font-size="12" fill="#374151">calibration needs E172 full run</text>
<line x1="290" y1="171" x2="360" y2="171" stroke="#374151" stroke-width="1.3" marker-end="url(#arrow)"/><text x="299.0" y="163.0" font-size="11" fill="#4b5563">guards</text>
<line x1="610" y1="171" x2="700" y2="171" stroke="#374151" stroke-width="1.3" marker-end="url(#arrow)"/><text x="629.0" y="163.0" font-size="11" fill="#4b5563">feeds</text>
<line x1="835" y1="242" x2="835" y2="306" stroke="#374151" stroke-width="1.3" marker-end="url(#arrow)"/><text x="809.0" y="266.0" font-size="11" fill="#4b5563">smoke</text>
<line x1="835" y1="444" x2="835" y2="520" stroke="#374151" stroke-width="1.3" marker-end="url(#arrow)"/><text x="809.0" y="474.0" font-size="11" fill="#4b5563">constrains</text>
<line x1="700" y1="590" x2="620" y2="590" stroke="#374151" stroke-width="1.3" marker-end="url(#arrow)"/><text x="634.0" y="582.0" font-size="11" fill="#4b5563">bounds</text>
<line x1="970" y1="171" x2="1030" y2="171" stroke="#374151" stroke-width="1.3" marker-end="url(#arrow)"/><text x="974.0" y="163.0" font-size="11" fill="#4b5563">pending</text>
<line x1="970" y1="375" x2="1030" y2="375" stroke="#374151" stroke-width="1.3" marker-end="url(#arrow)"/><text x="974.0" y="367.0" font-size="11" fill="#4b5563">pending</text>
</svg>
